<svg width="336" height="54" viewBox="0 0 336 54" fill="none" xmlns="http://www.w3.org/2000/svg">
<g clip-path="url(#clip0_420_390)">
<path d="M34.3931 1.49402C35.0553 1.49402 35.502 2.00999 35.502 2.52596V13.6848C35.502 14.3471 35.0553 14.7938 34.3931 14.7938H15.6178V21.5245H30.4732C31.1355 21.5245 31.5051 22.0405 31.4358 22.4872L30.4039 32.8374C30.3269 33.2841 29.8109 33.8001 29.1486 33.8001H15.6178V51.4663C15.6178 51.9823 15.1018 52.4983 14.5089 52.4983H1.41702C0.824033 52.4983 0.385071 51.9053 0.385071 51.3893V2.52596C0.385071 2.00999 0.831734 1.49402 1.41702 1.49402H34.3854H34.3931Z" fill="white" stroke="black" stroke-linecap="round" stroke-linejoin="round"/>
<path d="M74.223 39.1985C74.816 39.1985 75.332 39.6452 75.332 40.1612V51.474C75.332 51.99 74.816 52.506 74.223 52.506H39.8454C39.3294 52.506 38.8134 51.913 38.6594 51.397V2.52596C38.6594 1.86367 39.0291 1.49402 39.6914 1.49402H73.3297C73.992 1.49402 74.5157 2.00999 74.5157 2.52596V13.6848C74.5157 14.3471 73.9997 14.7938 73.3297 14.7938H54.0385V20.6312H69.7102C70.3725 20.6312 70.7421 21.1472 70.6728 21.5938L69.6409 31.9441C69.5639 32.3908 69.0479 32.9067 68.3856 32.9067H54.0462V39.1908H74.2307L74.223 39.1985Z" fill="white" stroke="black" stroke-linecap="round" stroke-linejoin="round"/>
<path d="M128.585 51.5434C128.808 51.99 128.508 52.506 127.923 52.506H113.283C112.621 52.506 112.028 52.1363 111.727 51.5434L109.509 43.7807H95.6089L93.391 51.5434C93.0984 52.1363 92.5054 52.506 91.8354 52.506H77.1956C76.6027 52.506 76.31 51.99 76.5333 51.5434L93.2447 2.45665C93.468 2.00999 94.2766 1.49402 95.0159 1.49402H110.095C110.834 1.49402 111.65 2.00999 111.866 2.45665L128.57 51.5434H128.585ZM102.563 19.168L98.5738 33.2148H106.56L102.571 19.168H102.563Z" fill="white" stroke="black" stroke-linecap="round" stroke-linejoin="round"/>
<path d="M163.432 1.49402C164.095 1.49402 164.541 2.00999 164.464 2.52596L163.355 13.7618C163.278 14.3548 162.693 14.7938 162.169 14.7938H151.157V51.4586C151.157 51.9746 150.71 52.4906 150.125 52.4906H137.041C136.448 52.4906 135.932 51.9746 135.932 51.4586V14.8015H123.656C123.14 14.8015 122.624 14.3548 122.624 13.7695V2.60297C122.624 2.00999 123.14 1.49402 123.656 1.49402H163.425H163.432Z" fill="white" stroke="black" stroke-linecap="round" stroke-linejoin="round"/>
<path d="M206.05 1.49402C206.789 1.49402 207.305 2.087 207.305 2.7493V33.5767C207.305 46.6609 200.282 53.5379 186.905 53.5379C173.529 53.5379 166.651 46.6609 166.505 33.5767V2.7493C166.505 2.087 167.098 1.49402 167.76 1.49402H180.475C181.214 1.49402 181.73 2.087 181.73 2.7493V34.909C181.73 38.3129 183.655 40.3075 186.905 40.3075C190.155 40.3075 192.08 38.3129 192.08 34.986V2.7493C192.08 2.087 192.673 1.49402 193.336 1.49402H206.05Z" fill="white" stroke="black" stroke-linecap="round" stroke-linejoin="round"/>
<path d="M255.791 51.32C256.161 51.9823 255.645 52.506 254.975 52.506H239.157C238.418 52.506 237.756 51.99 237.455 51.32L229.769 35.2017H228.884V51.4664C228.884 51.9823 228.368 52.4983 227.698 52.4983H214.683C214.09 52.4983 213.574 51.9823 213.574 51.4664V2.60297C213.574 2.00999 214.09 1.49402 214.683 1.49402H234.198C245.58 1.49402 253.119 8.14775 253.119 18.1977C253.119 24.0351 249.569 29.9495 244.024 32.3138L255.776 51.3123L255.791 51.32ZM233.243 22.6335C235.753 22.6335 237.455 21.0779 237.455 18.7136C237.455 16.3494 235.753 14.7938 233.243 14.7938H228.884V22.6335H233.243Z" fill="white" stroke="black" stroke-linecap="round" stroke-linejoin="round"/>
<path d="M294.22 39.1985C294.813 39.1985 295.329 39.6452 295.329 40.1612V51.474C295.329 51.99 294.813 52.506 294.22 52.506H259.842C259.326 52.506 258.81 51.913 258.656 51.397V2.52596C258.656 1.86367 259.026 1.49402 259.688 1.49402H293.327C293.989 1.49402 294.512 2.00999 294.512 2.52596V13.6848C294.512 14.3471 293.997 14.7938 293.327 14.7938H274.035V20.6312H289.707C290.369 20.6312 290.739 21.1472 290.67 21.5938L289.638 31.9441C289.561 32.3908 289.045 32.9067 288.382 32.9067H274.043V39.1908H294.228L294.22 39.1985Z" fill="white" stroke="black" stroke-linecap="round" stroke-linejoin="round"/>
<path d="M303.746 36.9806C303.97 36.2413 304.485 36.018 305.078 36.3876C308.482 38.3129 312.548 39.7145 315.352 39.9378C317.716 39.9378 319.272 38.8289 319.272 37.1269C319.272 32.7681 298.502 32.9838 298.502 16.8731C298.502 6.9695 305.972 0.385071 317.208 0.385071C322.46 0.385071 329.114 2.52597 333.765 5.70652C334.358 6.07617 334.581 6.66916 334.358 7.03881L329.699 17.4661C329.475 18.2054 328.96 18.4287 328.367 18.0591C324.747 15.9875 320.527 14.4395 317.939 14.2162C315.644 14.2162 314.166 15.2482 314.166 16.8808C314.166 21.2396 335.09 20.947 335.09 37.2117C335.09 47.0459 327.473 53.6227 316.091 53.6227C309.884 53.6227 303.377 51.6974 299.68 48.7402C299.087 48.2935 298.864 47.7775 299.087 47.4079L303.746 36.9806Z" fill="white" stroke="black" stroke-linecap="round" stroke-linejoin="round"/>
</g>
<defs>
<clipPath id="clip0_420_390">
<rect width="335.475" height="54" fill="white"/>
</clipPath>
</defs>
</svg>
