<?xml version="1.0" standalone="no"?>
<!DOCTYPE svg PUBLIC "-//W3C//DTD SVG 20010904//EN"
 "http://www.w3.org/TR/2001/REC-SVG-20010904/DTD/svg10.dtd">
<svg version="1.0" xmlns="http://www.w3.org/2000/svg"
 width="255.000000pt" height="85.000000pt" viewBox="0 0 255.000000 85.000000"
 preserveAspectRatio="xMidYMid meet">
<g transform="translate(0.000000,85.000000) scale(0.066667,-0.066667)"
fill="#000000" stroke="none">
<path d="M1268 1256 c-4 -10 -18 -76 -31 -146 -38 -191 -180 -677 -223 -760
-91 -178 -237 -258 -302 -165 -34 49 -27 65 44 101 299 149 358 585 73 532
-331 -61 -477 -662 -189 -783 123 -51 286 -6 364 101 39 53 47 59 54 35 40
-128 87 -167 177 -150 50 9 160 108 160 144 0 35 27 11 35 -30 22 -107 134
-152 226 -91 42 27 129 141 129 168 0 29 28 10 44 -30 73 -175 301 -214 431
-75 209 224 116 711 -136 711 -151 0 -267 -117 -334 -337 -54 -178 -136 -316
-188 -316 -43 0 2 224 130 648 106 352 106 367 -24 433 -64 33 -88 28 -88 -18
0 -208 -247 -959 -339 -1031 -100 -79 -83 47 82 598 104 352 102 332 47 395
-51 59 -132 96 -142 66z m884 -602 c-29 -45 -22 -135 13 -170 18 -18 25 -13
53 33 59 100 79 36 39 -120 -57 -219 -207 -302 -270 -150 -59 141 35 407 158
447 34 11 35 3 7 -40z m-1229 20 c27 -43 -161 -299 -220 -299 -51 0 60 230
136 281 57 38 70 41 84 18z"/>
<path d="M294 881 c-20 -27 -68 -116 -107 -198 -39 -83 -94 -199 -121 -258
-100 -212 -46 -368 140 -411 190 -43 281 101 223 351 -37 158 -32 247 21 347
52 99 47 120 -41 180 -70 48 -70 48 -115 -11z m-32 -537 c39 -192 13 -260 -77
-209 -88 50 -83 128 8 127 54 0 56 9 24 100 -23 63 -18 151 7 124 6 -7 23 -71
38 -142z"/>
<path d="M2506 822 c-33 -100 -40 -170 -16 -184 8 -6 -1 -44 -23 -93 -35 -79
-36 -86 -12 -112 40 -45 59 -33 95 62 22 59 42 90 58 90 14 0 41 5 62 10 36
10 36 9 12 -15 -41 -41 -145 -266 -152 -330 -28 -235 207 -315 361 -123 51 65
51 65 84 3 28 -52 87 -95 138 -100 73 -8 104 4 162 61 37 37 64 55 68 44 32
-97 166 -146 252 -92 122 77 270 399 201 436 -46 25 -58 19 -77 -40 -43 -134
-159 -299 -189 -269 -6 6 1 71 15 145 29 149 24 171 -46 223 -40 30 -40 31 -8
32 61 0 27 142 -52 211 -157 138 -384 -16 -492 -332 -46 -135 -97 -216 -157
-247 -93 -47 -79 23 50 254 124 223 134 291 47 348 -35 23 -39 22 -137 -60
-103 -85 -125 -95 -96 -41 36 68 15 135 -59 186 -52 37 -54 36 -89 -67z m912
-193 c15 -43 14 -47 -11 -40 -25 6 -29 -4 -36 -88 -20 -255 -251 -436 -251
-197 0 256 233 511 298 325z"/>
</g>
</svg>
