<svg xmlns="http://www.w3.org/2000/svg" width="384.204" height="179.345" viewBox="0 0 384.204 179.345"><g transform="translate(-767.625 -815.52)"><path d="M2025.756,2019.848s-18.931,42.018-48.731,30.761-38.46-36.973-38.46-36.973,5.514,49.665-19.278,51.122-51.182-17.849-51.182-17.849,31.757,41.64,10.72,49.45-42.567,13.375-42.567,13.375,31.762,4.627,42.567,21.009,0,25.315,0,25.315,28.212-13.262,40.461-6.047,0,37.309,0,37.309,23.77-31.654,45.314-31.262,15.612,17.5,15.612,17.5,13.234-15.983,31.846-14.838a40.874,40.874,0,0,1,28.7,14.838s-.731-18.6,18.03-20.61,40.825,23.865,40.825,23.865-5.113-22.305,12.147-18.093,30.84,33.145,30.84,33.145-1.95-31.981,16.208-35.806,29.783,2.661,29.783,2.661-21.8-17.346-12.73-31.339,44.165-12.921,44.165-12.921-46.8-1.891-44.165-18.1,25.512-37.776,25.512-37.776-56.542,27.992-67.746,15.651,14.7-38.37,14.7-38.37-46.42,35-60.658,28.894-4.724-38.549-4.724-38.549-9.248,29.279-28.586,30.031S2025.756,2019.848,2025.756,2019.848Z" transform="translate(-1068.259 -1197.637)" fill="#31ff00"/><path d="M1939.986,2013.156a55.941,55.941,0,0,0,7.906,13.941,66.452,66.452,0,0,0,29.663,22.109,27.041,27.041,0,0,0,9.562,1.819c11.745,0,21.211-8.557,27.083-15.736a82.1,82.1,0,0,0,10.188-16.058l1.777-3.937,1.046,4.19a96.259,96.259,0,0,0,6.813,17.928,45.842,45.842,0,0,0,8.449,12.091c3.594,3.483,7.4,5.249,11.311,5.249.172,0,.347,0,.52-.01,9.342-.363,16.216-8.143,20.339-14.605a68.877,68.877,0,0,0,6.875-14.379l2.87.874a89.1,89.1,0,0,0-2.923,16.709,37.2,37.2,0,0,0,.911,12.428c1.1,3.847,3.08,6.408,5.888,7.612a8.715,8.715,0,0,0,3.415.593c6.828,0,18.6-5.042,34.056-14.58,11.795-7.281,21.6-14.652,21.694-14.725l1.966,2.256a95.17,95.17,0,0,0-11.371,14.336,37.786,37.786,0,0,0-5.359,12.093c-.849,4.173-.17,7.4,2.074,9.875,1.6,1.759,4.557,2.651,8.8,2.651,7.942,0,20.33-3.213,35.825-9.293,11.778-4.621,21.253-9.3,21.347-9.344l1.694,2.436a148.718,148.718,0,0,0-11.656,12.694c-7.734,9.49-12.369,17.87-13.4,24.231a6.209,6.209,0,0,0,1.482,5.149c3.236,3.965,11.347,7.163,23.456,9.248a156.158,156.158,0,0,0,17.808,1.963l-.106,3c-.006,0-.614-.018-1.67-.018a114.061,114.061,0,0,0-20.667,1.892c-10.35,2.036-17.447,5.62-20.523,10.365-3.4,5.236-2.411,11.707,2.927,19.233a56.123,56.123,0,0,0,9.478,10.116l-1.665,2.484a26.8,26.8,0,0,0-4.717-1.841,45.434,45.434,0,0,0-13.007-1.837,53.6,53.6,0,0,0-11.02,1.175c-6.9,1.452-11.523,7.568-13.755,18.178a68.509,68.509,0,0,0-1.266,16.069l-2.855.729a106.721,106.721,0,0,0-8.838-14.8c-7.044-9.834-14.306-15.9-21-17.529a15.488,15.488,0,0,0-3.629-.487,6.285,6.285,0,0,0-5.271,2.25c-1.86,2.335-2.162,6.118-2.088,8.88a32.324,32.324,0,0,0,.659,5.657l-2.6,1.308a105.018,105.018,0,0,0-12.347-11.827c-6.547-5.3-16.238-11.622-25.219-11.622a18.433,18.433,0,0,0-1.958.1c-7.208.773-12.2,4.2-14.838,10.173a22.468,22.468,0,0,0-1.853,8.886l.192,4.883-2.9-3.935a36.355,36.355,0,0,0-7.14-6.736,38.765,38.765,0,0,0-20.444-7.5c-.6-.037-1.215-.056-1.818-.056-8.7,0-16.06,3.9-20.7,7.175a45.592,45.592,0,0,0-8.077,7.179l-2.573-1.448a15.219,15.219,0,0,0,.645-3.688,10.61,10.61,0,0,0-1.706-6.817c-2.246-3.2-6.674-4.885-13.16-5-.123,0-.248,0-.371,0-10.581,0-21.855,8.27-29.449,15.208a127.647,127.647,0,0,0-14.267,15.459l-2.589-1.466a90.328,90.328,0,0,0,4.514-15.693c1.3-7.2,1.688-16.475-3.886-19.758a17.472,17.472,0,0,0-8.855-1.942c-5.312,0-12.206,1.386-19.934,4.007-5.894,2-10.23,4.027-10.273,4.047l-1.594-2.514-.005,0a13.481,13.481,0,0,0,3.629-5.964c1.576-5.194.257-11.039-3.92-17.373-5.349-8.111-16.315-13.208-24.572-16.056a105.1,105.1,0,0,0-16.959-4.295l-.159-2.937c.215-.056,21.7-5.637,42.42-13.329a8.633,8.633,0,0,0,5.75-5.89c1.584-5.469-.841-14.293-7.012-25.519a142.558,142.558,0,0,0-10.129-15.725l2.078-2.12a111.964,111.964,0,0,0,15.076,8.854c8.167,4.007,20.437,8.784,32.511,8.784.882,0,1.764-.025,2.621-.076a14.124,14.124,0,0,0,10.426-5.3c4.421-5.241,7.117-14.508,7.795-26.8a118.293,118.293,0,0,0-.345-17.362Zm47.132,40.869a30.027,30.027,0,0,1-10.622-2.013,70.009,70.009,0,0,1-18.987-10.757,68.967,68.967,0,0,1-12.087-12.453,67.646,67.646,0,0,1-4.881-7.458c.079,2.851.079,6.287-.125,9.985a78.744,78.744,0,0,1-2.193,15.233c-1.452,5.612-3.573,10.1-6.3,13.335a17.2,17.2,0,0,1-12.543,6.358c-.916.054-1.856.081-2.8.081a64.159,64.159,0,0,1-18.112-2.863,101.436,101.436,0,0,1-15.774-6.254c-3.47-1.7-6.5-3.4-8.936-4.858,1.79,2.7,3.9,6.078,5.914,9.737a77.963,77.963,0,0,1,6.291,14.243c1.675,5.441,2,10,.974,13.555a11.6,11.6,0,0,1-7.588,7.868c-14.105,5.237-28.56,9.5-36.513,11.731a110.544,110.544,0,0,1,11.145,3.181,74.668,74.668,0,0,1,14.417,6.591,36.314,36.314,0,0,1,11.682,10.649,29.652,29.652,0,0,1,4.787,11.454,18.585,18.585,0,0,1-.557,8.624,17.3,17.3,0,0,1-1.033,2.548c1.56-.615,3.412-1.308,5.463-2a94.468,94.468,0,0,1,10.137-2.863,51.44,51.44,0,0,1,10.8-1.315,20.358,20.358,0,0,1,10.378,2.357c3.2,1.886,5.185,5.232,5.89,9.943a40.623,40.623,0,0,1-.582,12.977,83.746,83.746,0,0,1-2.034,8.478,130.361,130.361,0,0,1,9.371-9.537,81.349,81.349,0,0,1,14.712-10.948c6-3.369,11.647-5.078,16.8-5.078.141,0,.284,0,.426,0,7.512.136,12.753,2.257,15.576,6.3a13.579,13.579,0,0,1,2.251,8.263,52.777,52.777,0,0,1,5.26-4.24,45.321,45.321,0,0,1,9.791-5.294,35.154,35.154,0,0,1,12.641-2.428c.665,0,1.339.021,2,.062a40.664,40.664,0,0,1,12.808,2.908,43.074,43.074,0,0,1,9.318,5.229,43.65,43.65,0,0,1,5.245,4.532,25.358,25.358,0,0,1,1.844-6.49,19.512,19.512,0,0,1,5.762-7.563,22.015,22.015,0,0,1,11.5-4.382,21.476,21.476,0,0,1,2.278-.12,32.633,32.633,0,0,1,14.425,3.905,71.293,71.293,0,0,1,12.722,8.418,109.963,109.963,0,0,1,9.432,8.639c-.031-.448-.054-.916-.067-1.4-.128-4.744.794-8.388,2.74-10.831a9.219,9.219,0,0,1,7.617-3.381,18.474,18.474,0,0,1,4.341.572c4.179,1.02,8.466,3.474,12.744,7.295A69.8,69.8,0,0,1,2134.873,2176a110.36,110.36,0,0,1,6.241,9.818,67.884,67.884,0,0,1,1.314-10.73,36.025,36.025,0,0,1,4.942-12.656,17.536,17.536,0,0,1,11.13-7.84,56.612,56.612,0,0,1,11.638-1.24,49.345,49.345,0,0,1,12.138,1.483,53.8,53.8,0,0,1-4.675-5.67,29.488,29.488,0,0,1-5.045-10.671,15.3,15.3,0,0,1,2.047-11.929c3.579-5.519,11.136-9.448,22.461-11.676,1.735-.341,3.47-.624,5.162-.857l-.456-.078c-13.015-2.241-21.518-5.709-25.271-10.308a9.171,9.171,0,0,1-2.118-7.528,39.893,39.893,0,0,1,5.285-13.257,99.562,99.562,0,0,1,8.779-12.417c2.148-2.634,4.266-5.026,6.106-7.017-3.776,1.7-8.7,3.831-14.093,5.948a198.165,198.165,0,0,1-19.1,6.509c-7.158,1.985-13.154,2.991-17.824,2.991a21.9,21.9,0,0,1-6.273-.8,10.289,10.289,0,0,1-4.746-2.835c-2.9-3.189-3.833-7.4-2.788-12.51a40.78,40.78,0,0,1,5.78-13.111c1.231-1.952,2.537-3.809,3.813-5.505-3.465,2.37-7.6,5.107-12.012,7.829a171.945,171.945,0,0,1-18.828,10.268c-6.97,3.158-12.624,4.76-16.8,4.76a11.662,11.662,0,0,1-4.6-.836c-3.683-1.579-6.239-4.8-7.6-9.566a40.212,40.212,0,0,1-1.01-13.477c.1-1.427.237-2.831.405-4.184-.53.934-1.1,1.885-1.708,2.839a43.088,43.088,0,0,1-9.251,10.656,22.939,22.939,0,0,1-13.5,5.334c-.212.008-.426.012-.637.012-4.725,0-9.239-2.056-13.417-6.112a48.875,48.875,0,0,1-9.038-12.909,97.45,97.45,0,0,1-5.958-14.8,85.993,85.993,0,0,1-8.8,13.2,55,55,0,0,1-12.509,11.544A31.015,31.015,0,0,1,1987.118,2054.025Z" transform="translate(-1068.259 -1197.637)"/></g></svg>