<svg xmlns="http://www.w3.org/2000/svg" width="71" height="20" viewBox="0 0 71 20" fill="none">
<path d="M59.7159 12.2713C59.472 12.3786 59.3424 12.5916 59.2786 12.781L57.7865 16.1204C57.6694 16.3417 57.6958 16.5755 57.7736 16.7523C57.8502 16.9265 57.9811 17.0658 58.1195 17.1709C59.434 18.2192 61.6646 18.86 63.7542 18.86C65.6962 18.86 67.3624 18.2983 68.5511 17.2713C69.7463 16.2388 70.4222 14.7661 70.4222 13.032C70.4222 11.5926 69.9551 10.4948 69.2433 9.65014C68.5413 8.81709 67.6206 8.25256 66.7422 7.83198C66.1917 7.56841 65.6061 7.34043 65.1061 7.14574C64.8354 7.04033 64.5897 6.94469 64.3883 6.85844C64.0755 6.72452 63.8599 6.61176 63.7274 6.50958C63.6653 6.46172 63.6399 6.43088 63.6306 6.41652C63.6342 6.33258 63.6681 6.26926 63.7511 6.21076C63.8525 6.13937 64.0408 6.07122 64.3331 6.06807C65.0722 6.13818 66.3495 6.59932 67.4833 7.24616C67.6698 7.35947 67.9326 7.43054 68.2006 7.31261C68.4445 7.20531 68.5741 6.99231 68.6379 6.80291L70.1301 3.46328C70.248 3.23978 70.2188 3.00182 70.1457 2.82913C70.0689 2.64762 69.9316 2.49668 69.7649 2.39007C68.1771 1.30878 65.9241 0.579956 64.1142 0.579956C62.1945 0.579956 60.5508 1.14268 59.3796 2.17485C58.2027 3.21213 57.5422 4.69031 57.5422 6.43196C57.5422 7.85955 58.0065 8.94968 58.7135 9.78957C59.4106 10.6178 60.325 11.1808 61.1971 11.6013C61.7392 11.8628 62.3181 12.0908 62.8129 12.2857C63.0853 12.393 63.3323 12.4903 63.5336 12.5776C63.8439 12.7121 64.0577 12.8254 64.189 12.9278C64.2519 12.9768 64.277 13.0081 64.286 13.0224C64.2824 13.1197 64.2422 13.1964 64.1471 13.2645C64.0358 13.3442 63.8355 13.4169 63.5336 13.4199C62.7184 13.3503 61.4852 12.931 60.4319 12.337C60.2456 12.2241 59.9833 12.1536 59.7159 12.2713ZM63.6257 6.40709C63.6259 6.40709 63.6268 6.40871 63.6278 6.41193C63.626 6.40869 63.6255 6.40708 63.6257 6.40709ZM64.2904 13.0313C64.2902 13.0313 64.2893 13.0297 64.2884 13.0265C64.2902 13.0297 64.2906 13.0313 64.2904 13.0313Z" fill="#FFF462" stroke="black"/>
<path d="M48.6856 6.73611L47.3947 1.72325L47.3922 1.71371L47.3894 1.70427C47.3097 1.43855 47.1228 1.24704 46.9296 1.12811C46.7344 1.00799 46.4997 0.939941 46.2625 0.939941L42.8065 0.939941C42.5693 0.939941 42.3347 1.00799 42.1395 1.12811C41.9462 1.24703 41.7593 1.43855 41.6796 1.70427L41.6768 1.71371L41.6743 1.72325L40.3834 6.73611L39.4337 1.75431L39.4322 1.74687L39.4306 1.73948C39.3729 1.47975 39.2023 1.28335 39.0347 1.16012C38.8641 1.03467 38.6367 0.939941 38.3905 0.939941L33.0145 0.939941C32.755 0.939941 32.4979 1.04967 32.34 1.28179C32.1896 1.50297 32.1765 1.76599 32.2474 1.99141L36.6126 17.7494L36.6161 17.7618L36.6202 17.7741C36.6954 17.9997 36.8479 18.1765 37.0127 18.295C37.1766 18.4128 37.3905 18.4999 37.6225 18.4999H41.7985C42.0221 18.4999 42.2421 18.4185 42.4121 18.3068C42.5755 18.1994 42.7711 18.011 42.8362 17.7347L44.5345 11.1656L46.2328 17.7347C46.2979 18.011 46.4935 18.1994 46.6569 18.3068C46.8269 18.4185 47.0469 18.4999 47.2705 18.4999H51.4465C51.6785 18.4999 51.8924 18.4128 52.0563 18.295C52.2211 18.1765 52.3736 17.9997 52.4488 17.7741L52.4529 17.7618L52.4564 17.7494L56.8216 1.99139C56.8925 1.76597 56.8794 1.50296 56.729 1.28179C56.5711 1.04967 56.314 0.939941 56.0545 0.939941L50.6785 0.939941C50.4324 0.939941 50.2049 1.03467 50.0343 1.16012C49.8667 1.28335 49.6961 1.47975 49.6384 1.73947L49.6368 1.74687L49.6353 1.75431L48.6856 6.73611Z" fill="#FFF462" stroke="black"/>
<path d="M30.6672 13.1799L24.6152 13.1799V12.1399L28.7712 12.1399C29.0112 12.1399 29.2177 12.0467 29.3673 11.9221C29.5094 11.8036 29.6365 11.6255 29.6724 11.4101L29.6751 11.394L29.6767 11.3777L30.0115 8.02985C30.0771 7.55959 29.6898 7.15594 29.2032 7.15594L24.6152 7.15594V6.25994L30.3792 6.25994C30.8275 6.25994 31.2632 5.93392 31.2632 5.39994V1.77594C31.2632 1.28996 30.8275 0.939941 30.3792 0.939941L19.4592 0.939941C19.2607 0.939941 19.0335 0.996512 18.8566 1.17339C18.6797 1.35026 18.6232 1.57749 18.6232 1.77594L18.6232 17.6399V17.71L18.6424 17.7773C18.6918 17.9503 18.7931 18.113 18.9166 18.2365C19.0334 18.3533 19.2373 18.4999 19.5072 18.4999L30.6672 18.4999C30.9091 18.4999 31.1187 18.3957 31.2644 18.2566C31.4072 18.1203 31.5272 17.9123 31.5272 17.6639V13.9919C31.5272 13.4815 31.064 13.1799 30.6672 13.1799Z" fill="#FFF462" stroke="black"/>
<path d="M10.5477 17.9321L10.5536 17.9427L10.56 17.9529C10.7571 18.2683 11.1223 18.4999 11.488 18.4999L15.64 18.4999C16.1322 18.4999 16.5 18.1081 16.5 17.6639V1.79994C16.5 1.35398 16.1538 0.939941 15.64 0.939941L11.392 0.939941C11.1437 0.939941 10.9357 1.05987 10.7993 1.2027C10.6603 1.34839 10.556 1.55805 10.556 1.79994L10.556 7.28855L7.34534 1.51676C7.14381 1.12692 6.70954 0.939941 6.35201 0.939941L2.20001 0.939941C1.68809 0.939941 1.36401 1.37771 1.36401 1.79994L1.36401 17.6639C1.36401 18.0848 1.70916 18.4999 2.20001 18.4999H6.44801C6.94016 18.4999 7.30801 18.1081 7.30801 17.6639L7.30801 12.1417L10.5477 17.9321Z" fill="#FFF462" stroke="black"/>
</svg>